<svg width="175.289" xmlns="http://www.w3.org/2000/svg" height="12.965" id="screenshot-7c050703-08ca-80b3-8007-ae7183abf6bd" viewBox="0 0 175.289 12.965" xmlns:xlink="http://www.w3.org/1999/xlink" fill="none" version="1.1"><g id="shape-7c050703-08ca-80b3-8007-ae7183abf6bd"><g class="frame-container-wrapper"><g class="frame-container-blur"><g class="frame-container-shadows"><g fill="none"><g class="fills" id="fills-7c050703-08ca-80b3-8007-ae7183abf6bd"><rect rx="0" ry="0" x="0" y="0" width="175.28911306711825" height="12.964704130219161" transform="matrix(1.000000, 0.000000, 0.000000, 1.000000, 0.000000, 0.000000)" class="frame-background"/></g><g class="frame-children"><g id="shape-37e4a91c-14c1-804f-8005-88e72f48b059"><g class="fills" id="fills-37e4a91c-14c1-804f-8005-88e72f48b059"><path d="M175.2779083251953,7.6002397537231445C175.1145782470703,6.6869096755981445,172.5578155517578,6.1568803787231445,169.1111602783203,6.0586137771606445C139.8126983642578,5.2242631912231445,110.42219543457031,4.6062211990356445,80.97785949707031,4.2052202224731445L84.35786437988281,4.1852006912231445C90.94453430175781,4.1452836990356445,97.50788879394531,4.0410356521606445,104.00117492675781,3.7426960468292236C104.07783508300781,3.7394001483917236,104.15119934082031,3.7335407733917236,104.22456359863281,3.7285358905792236C113.08113098144531,3.7110798358917236,121.93782043457031,3.7328083515167236,130.7877960205078,3.7860310077667236C142.6378936767578,3.8569538593292236,154.4811553955078,3.9835407733917236,166.3178253173828,4.1418657302856445C169.5445098876953,4.1852006912231445,172.6278839111328,3.4018757343292236,172.4845733642578,2.6002399921417236C172.3245391845703,1.6986286640167236,169.7678985595703,1.1418659687042236,166.3178253173828,1.0586140155792236C127.38789367675781,0.12111398577690125,88.19453430175781,-0.10386160016059875,49.1345329284668,0.39687082171440125C43.7778434753418,0.46523019671440125,38.42451095581055,0.5486042499542236,33.07453536987305,0.6444294452667236C31.59449577331543,0.14528390765190125,29.08119010925293,-0.12302663922309875,26.49787712097168,0.055196017026901245C19.39118766784668,0.5453083515167236,12.271191596984863,1.0268757343292236,5.1445441246032715,1.4994099140167236C2.1712164878845215,1.6969196796417236,0.3278326690196991,2.4469196796417236,0.7278570532798767,3.1910603046417236C0.8045172095298767,3.3336384296417236,0.9778570532798767,3.4760944843292236,1.2245001792907715,3.6119587421417236C0.4278692901134491,3.8844196796417236,-0.0521722175180912,4.2152299880981445,0.004529441241174936,4.5285844802856445C0.1311773955821991,5.2419633865356445,1.8611578941345215,5.7811479568481445,4.5312018394470215,6.0152788162231445C13.541211128234863,6.8060503005981445,23.29450798034668,6.7953081130981445,32.7778434753418,6.8327836990356445C32.49116134643555,6.9552202224731445,32.2678337097168,7.0827836990356445,32.13117599487305,7.2069292068481445C31.51453971862793,7.7652788162231445,32.2445182800293,8.284443855285645,33.71784591674805,8.706929206848145C37.6245231628418,9.826069831848145,44.27119064331055,9.847798347473145,49.7144889831543,10.000264167785645C55.16450119018555,10.153584480285645,60.6345329284668,10.263569831848145,66.10456848144531,10.362812995910645C68.72785949707031,10.410298347473145,71.35456848144531,10.455220222473145,73.98115539550781,10.501118659973145C74.02449035644531,10.734395027160645,74.27119445800781,10.963643074035645,74.76118469238281,11.166890144348145C76.88789367675781,12.051899909973145,80.44453430175781,12.744404792785645,84.55781555175781,12.933613777160645C87.37446594238281,13.062764167785645,90.56452941894531,12.789448738098145,91.78120422363281,12.120259284973145C100.52119445800781,12.206074714660645,109.27449035644531,12.167744636535645,118.00447082519531,12.005269050598145C121.09114074707031,11.947773933410645,123.63447570800781,11.462788581848145,124.06123352050781,10.668599128723145C124.46113586425781,9.925312995910645,122.63117980957031,9.173604011535645,119.64448547363281,8.976948738098145C114.69123840332031,8.651143074035645,109.68782043457031,8.401143074035645,104.65791320800781,8.201924324035645C116.58113098144531,8.264424324035645,128.4945831298828,8.419453620910645,140.3944854736328,8.615254402160645C149.9745635986328,8.773579597473145,159.5445098876953,8.957783699035645,169.1178741455078,9.143574714660645C172.3411407470703,9.206074714660645,175.4245147705078,8.390278816223145,175.2845001220703,7.6019487380981445Z" style="fill: rgb(102, 188, 215); fill-opacity: 1;"/></g></g></g></g></g></g></g></g></svg>