<svg width="67.494" xmlns="http://www.w3.org/2000/svg" height="70.457" id="screenshot-85e1eaea-9550-8056-8005-8003752c7372" viewBox="0 0 67.494 70.457" xmlns:xlink="http://www.w3.org/1999/xlink" fill="none" version="1.1"><g id="shape-85e1eaea-9550-8056-8005-8003752c7372" rx="0" ry="0" style="fill: rgb(0, 0, 0);"><g id="shape-85e1eaea-9550-8056-8005-80037531c8ef"><g class="fills" id="fills-85e1eaea-9550-8056-8005-80037531c8ef"><path d="M65.45272064208984,0.005983257666230202C65.97774505615234,0.005983257666230202,66.46675872802734,0.17700377106666565,66.85372161865234,0.5009783506393433C67.48726654052734,1.0333880186080933,67.57039642333984,1.9780901670455933,67.03975677490234,2.612977981567383C66.91670989990234,2.760011672973633,54.634727478027344,17.460023880004883,42.595664978027344,32.86199951171875C35.536705017089844,41.89501953125,29.941734313964844,49.39501953125,25.969688415527344,55.15496826171875C21.979698181152344,60.93902587890625,20.245689392089844,64.0889892578125,19.501670837402344,65.7750244140625C21.751670837402344,63.81298828125,26.785728454589844,58.57501220703125,37.912681579589844,44.6729736328125C47.248741149902344,33.00897216796875,57.112754821777344,19.971010208129883,61.852745056152344,13.706972122192383C62.743736267089844,12.528017044067383,63.451744079589844,11.591981887817383,63.943687438964844,10.947023391723633C64.95772552490234,9.617982864379883,65.08675384521484,9.447023391723633,65.74373626708984,9.372011184692383C66.15169525146484,9.327028274536133,66.56270599365234,9.450014114379883,66.87764739990234,9.713991165161133C68.05672454833984,10.703981399536133,67.16866302490234,12.039003372192383,66.38265228271484,13.218019485473633C65.80074310302734,14.093996047973633,64.91268157958984,15.330018997192383,63.667686462402344,16.997987747192383C61.348716735839844,20.106019973754883,58.138755798339844,24.255006790161133,54.421714782714844,29.057985305786133C49.192710876464844,35.81402587890625,43.342735290527344,43.37701416015625,38.389732360839844,50.09100341796875C43.441734313964844,43.77301025390625,48.949668884277344,36.90301513671875,53.611656188964844,31.268983840942383C62.926719665527344,20.015993118286133,63.679649353027344,19.940980911254883,64.55269622802734,19.854005813598633C64.99666595458984,19.809022903442383,65.42269134521484,19.940980911254883,65.75569915771484,20.219972610473633C66.93465423583984,21.210023880004883,66.07967376708984,22.689027786254883,65.08675384521484,24.401979446411133C64.33968353271484,25.692018508911133,63.187705993652344,27.531007766723633,61.660728454589844,29.862001419067383C61.435752868652344,30.206972122192383,61.201744079589844,30.560976028442383,60.958702087402344,30.929994583129883C63.421714782714844,28.427980422973633,64.41170501708984,28.034975051879883,65.12264251708984,27.953981399536133C65.66268157958984,27.890993118286133,66.18172454833984,28.041017532348633,66.57772064208984,28.374025344848633C67.66963958740234,29.289003372192383,66.96175384521484,30.479982376098633,66.21175384521484,31.742982864379883C65.71370697021484,32.5830078125,64.96370697021484,33.76202392578125,63.925743103027344,35.35198974609375C61.996665954589844,38.2979736328125,59.341758728027344,42.2249755859375,56.530723571777344,46.38299560546875C55.228721618652344,48.30596923828125,53.818687438964844,50.39398193359375,52.411705017089844,52.49102783203125C53.383750915527344,51.27301025390625,54.310752868652344,50.10601806640625,55.141685485839844,49.06201171875C60.533653259277344,42.27996826171875,63.533653259277344,38.8590087890625,64.14168548583984,38.79901123046875C64.54366302490234,38.760009765625,64.95772552490234,38.885986328125,65.26973724365234,39.14398193359375C65.82161712646484,39.60821533203125,65.96529388427734,40.3994140625,65.61165618896484,41.02801513671875L56.572715759277344,57.06597900390625C58.555747985839844,54.58502197265625,60.409751892089844,52.22698974609375,61.588706970214844,50.72998046875C62.434654235839844,49.656005859375,63.145713806152344,48.75299072265625,63.649742126464844,48.11700439453125C64.67867279052734,46.823974609375,64.83773040771484,46.6259765625,65.49764251708984,46.5570068359375C65.90267181396484,46.5150146484375,66.30770111083984,46.63800048828125,66.61666107177734,46.89898681640625C67.12545013427734,47.32696533203125,67.29256439208984,48.03826904296875,67.02767181396484,48.64801025390625L63.235679626464844,57.3389892578125C64.44173431396484,55.90802001953125,65.03865814208984,55.5269775390625,65.69869232177734,55.448974609375C66.16072845458984,55.39501953125,66.61067962646484,55.52398681640625,66.95870208740234,55.8179931640625C67.59200286865234,56.3504638671875,67.67525482177734,57.29498291015625,67.14473724365234,57.92999267578125C66.91670989990234,58.2030029296875,66.61373138427734,58.3709716796875,66.28975677490234,58.43701171875C65.41670989990234,59.2349853515625,63.193687438964844,62.26800537109375,61.825645446777344,64.13397216796875C58.747642517089844,68.3280029296875,58.318687438964844,68.86798095703125,57.391685485839844,68.98199462890625C56.965660095214844,69.03302001953125,56.533653259277344,68.906982421875,56.206748962402344,68.6309814453125C55.696739196777344,68.20501708984375,55.528648376464844,67.49102783203125,55.795738220214844,66.88201904296875L59.686729431152344,57.96600341796875C50.434654235839844,69.58502197265625,49.441734313964844,70.22100830078125,48.448692321777344,70.322998046875C48.021080017089844,70.37054443359375,47.592613220214844,70.24041748046875,47.263755798339844,69.9630126953125C46.711387634277344,69.4976806640625,46.567832946777344,68.70550537109375,46.921714782714844,68.07598876953125L54.409751892089844,54.7860107421875C43.444664001464844,68.50799560546875,42.475669860839844,69.2550048828125,41.377647399902344,69.36602783203125C40.952964782714844,69.412109375,40.527915954589844,69.281982421875,40.201744079589844,69.0059814453125C39.019737243652344,68.0159912109375,39.859703063964844,66.54901123046875,40.831748962402344,64.85101318359375C41.551719665527344,63.593994140625,42.631675720214844,61.85699462890625,44.128746032714844,59.541015625C46.876670837402344,55.29901123046875,50.518760681152344,49.90802001953125,54.043663024902344,44.6939697265625C55.417686462402344,42.66302490234375,56.845664978027344,40.551025390625,58.180747985839844,38.55902099609375C57.328697204589844,39.5789794921875,56.377647399902344,40.73699951171875,55.324668884277344,42.04498291015625C50.422691345214844,48.13201904296875,44.869712829589844,55.48199462890625,40.813682556152344,60.8489990234375C36.621665954589844,66.39501953125,34.246665954589844,69.20001220703125,33.688682556152344,69.26397705078125C33.280723571777344,69.31201171875,32.860679626464844,69.18597412109375,32.545738220214844,68.91900634765625C31.945640563964844,68.41510009765625,31.834434509277344,67.53411865234375,32.290733337402344,66.89697265625C39.274742126464844,57.1290283203125,48.835655212402344,43.5360107421875,55.501670837402344,33.68096923828125C50.197715759277344,40.1099853515625,43.825645446777344,48.08099365234375,39.118736267089844,53.969970703125C31.346641540527344,63.6939697265625,27.146690368652344,68.5880126953125,26.518760681152344,68.6519775390625C26.116661071777344,68.69097900390625,25.705650329589844,68.56500244140625,25.396690368652344,68.3070068359375C24.346641540527344,67.42498779296875,24.529747009277344,66.0419921875,25.471641540527344,64.06500244140625C21.112754821777344,68.72998046875,19.348716735839844,69.7559814453125,18.268760681152344,69.8790283203125C17.698692321777344,69.94500732421875,17.158653259277344,69.78900146484375,16.747642517089844,69.4439697265625C15.86568546295166,68.7030029296875,15.56868839263916,67.56298828125,16.549644470214844,65.08197021484375C13.97567081451416,68.0460205078125,11.65670108795166,70.25701904296875,10.12374210357666,70.44000244140625C9.53267765045166,70.51202392578125,8.96871280670166,70.35302734375,8.53670597076416,69.989990234375C7.825645923614502,69.39300537109375,7.828697681427002,68.760009765625,7.861656665802002,64.635009765625C7.861656665802002,64.28399658203125,7.867760181427002,63.89398193359375,7.870689868927002,63.4949951171875C7.468712329864502,63.9959716796875,7.060753345489502,64.5059814453125,6.691734790802002,64.968017578125C2.491661787033081,70.2239990234375,2.461754560470581,70.22698974609375,1.6607290506362915,70.3079833984375C1.2587515115737915,70.34698486328125,0.8446890711784363,70.22100830078125,0.5357291102409363,69.96002197265625C0.2306753695011139,69.70465087890625,0.03987947106361389,69.33831787109375,0.005577713251113892,68.9420166015625C-0.02872404456138611,68.54571533203125,0.09615388512611389,68.15203857421875,0.3527456820011139,67.8480224609375C0.4577261507511139,67.72198486328125,0.5777212977409363,67.6199951171875,0.7096793055534363,67.53900146484375C1.2466665506362915,66.98101806640625,3.028649091720581,64.75201416015625,4.348717212677002,63.09600830078125C6.922691822052002,59.8740234375,8.47567081451416,58.23602294921875,9.00765323638916,58.1820068359375C9.40670108795166,58.14300537109375,9.82064151763916,58.26898193359375,10.12972354888916,58.5269775390625C10.86470890045166,59.1419677734375,10.90364933013916,59.79901123046875,10.86470890045166,64.656005859375C10.85872745513916,65.28900146484375,10.85274600982666,66.0269775390625,10.85567569732666,66.68402099609375C12.09175968170166,65.60400390625,14.45565128326416,63.11102294921875,18.943687438964844,57.4110107421875C23.629722595214844,51.458984375,29.242759704589844,43.81201171875,35.188682556152344,35.71502685546875C41.413658142089844,27.237001419067383,47.848716735839844,18.471010208129883,53.095664978027344,11.864992141723633C60.673667907714844,2.325014114379883,63.397666931152344,0.23101988434791565,65.15572357177734,0.0180071834474802C65.25472259521484,0.005983257666230202,65.35372161865234,0.000001812360324038309,65.45272064208984,0.000001812360324038309ZM2.464684247970581,67.66497802734375ZM2.464684247970581,67.66497802734375Z" style="fill: rgb(102, 188, 215); fill-opacity: 1;"/></g></g></g></svg>